#!OML:ASF H:\LiuWeirdWalks\Patient Classification 1\Patient 1\Session 1\male.ASF
:FULLY-SPECIFIED
:DEGREES
669
root 1.14721 18.0782 37.2039 2.99225 0.738136 8.04974
lowerback 3.66528 -5.285 -15.8254
upperback -2.78128 -7.88181 2.74386
thorax -2.56 -3.55553 12.1498
lowerneck -18.9561 1.21215 3.70509
upperneck 26.9881 2.06863 -5.30465
head 12.1353 0.583093 -2.30899
rclavicle 2.83035e-015 1.35174e-014
rhumerus -57.3164 -23.6572 -41.5395
rradius 25.5043
rwrist -1.46702
rhand -11.8885 -1.06112
rfingers 7.12502
rthumb 14.1644 -30.5582
lclavicle 2.83035e-015 1.35174e-014
lhumerus -19.339 -17.2533 87.8278
lradius 50.5695
lwrist 7.35842
lhand -13.1024 -9.92396
lfingers 7.12502
lthumb 12.9945 19.6514
rfemur -22.7206 -6.49337 15.7056
rtibia 35.4995
rfoot -5.94047 -13.9063
rtoes 9.20923
lfemur 1.82561 0.200942 -24.9488
ltibia 37.0961
lfoot 5.58985 4.99749
ltoes -19.3773
670
root 1.13912 18.0862 37.2619 3.19237 0.642168 8.56737
lowerback 3.70809 -5.09721 -15.9397
upperback -3.08062 -7.6747 2.51411
thorax -2.99793 -3.38891 11.9946
lowerneck -18.6302 1.03561 3.41032
upperneck 26.9923 1.90018 -5.2374
head 12.0574 0.489999 -2.2581
rclavicle -1.20333e-013 -3.97569e-015
rhumerus -57.6641 -23.6847 -41.7843
rradius 25.4209
rwrist -1.68523
rhand -11.8672 -1.11864
rfingers 7.12502
rthumb 14.185 -30.6143
lclavicle -1.20333e-013 -3.97569e-015
lhumerus -20.492 -17.5963 88.6016
lradius 50.3531
lwrist 6.72564
lhand -12.6135 -10.0207
lfingers 7.12502
lthumb 13.4658 19.524
rfemur -22.7973 -6.75436 15.1746
rtibia 35.6147
rfoot -6.21315 -13.6124
rtoes 9.0661
lfemur 0.918612 0.293216 -25.454
ltibia 38.3438
lfoot 6.28194 4.5728
ltoes -18.1008
671
root 1.13382 18.0935 37.3171 3.37126 0.55513 9.04126
lowerback 3.72314 -4.97779 -16.1239
upperback -3.32172 -7.55323 2.36595
thorax -3.31041 -3.27858 11.9578
lowerneck -18.2821 0.937523 3.1917
upperneck 26.9132 1.84802 -5.27957
head 11.9513 0.443003 -2.24121
rclavicle 5.23922e-014 1.59028e-014
rhumerus -57.6853 -23.6041 -42.2357
rradius 25.3449
rwrist -1.87764
rhand -11.8664 -1.15514
rfingers 7.12502
rthumb 14.1857 -30.6508
lclavicle 5.23922e-014 1.59028e-014
lhumerus -21.579 -17.6085 89.3292
lradius 50.0999
lwrist 6.11498
lhand -12.1893 -10.1171
lfingers 7.12502
lthumb 13.8746 19.4001
rfemur -22.8609 -7.07991 14.6825
rtibia 35.7376
rfoot -6.49034 -13.2642
rtoes 8.905
lfemur 0.0203307 0.401558 -25.9232
ltibia 39.6046
lfoot 6.88584 4.17614
ltoes -16.7521
672
root 1.12722 18.1003 37.3706 3.53004 0.422799 9.41672
lowerback 3.68951 -5.02367 -16.5199
upperback -3.38855 -7.63785 2.38155
thorax -3.29307 -3.30672 12.1979
lowerneck -18.2781 1.07501 3.27003
upperneck 26.7833 2.10175 -5.5649
head 11.9182 0.528298 -2.3201
rclavicle 4.86277e-014 7.15625e-014
rhumerus -56.8975 -23.405 -43.2059
rradius 25.1885
rwrist -1.99453
rhand -11.9115 -1.15681
rfingers 7.12502
rthumb 14.1423 -30.6555
lclavicle 4.86277e-014 7.15625e-014
lhumerus -22.3476 -16.958 89.761
lradius 49.7966
lwrist 5.54616
lhand -11.8568 -10.2153
lfingers 7.12502
lthumb 14.195 19.2797
rfemur -22.9082 -7.29736 14.3013
rtibia 35.8404
rfoot -6.74014 -12.9713
rtoes 8.73716
lfemur -0.879891 0.587327 -26.2762
ltibia 40.8791
lfoot 7.35023 3.83212
ltoes -15.4443
673
root 1.11854 18.1066 37.423 3.6477 0.266095 9.64877
lowerback 3.54385 -5.08168 -16.8179
upperback -3.25487 -7.69347 2.43049
thorax -3.00566 -3.36296 12.3908
lowerneck -18.6463 1.25325 3.42189
upperneck 26.6338 2.38621 -5.86503
head 11.957 0.628546 -2.41327
rclavicle 1.32068e-014 -9.54166e-015
rhumerus -55.7961 -23.4272 -44.37
rradius 25.0456
rwrist -2.02481
rhand -11.9785 -1.16045
rfingers 7.12502
rthumb 14.0778 -30.6636
lclavicle 1.32068e-014 -9.54166e-015
lhumerus -22.7341 -16.2497 90.0118
lradius 49.4041
lwrist 5.11472
lhand -11.6371 -10.2747
lfingers 7.12502
lthumb 14.4067 19.2053
rfemur -22.8942 -7.41225 14.0781
rtibia 35.8966
rfoot -6.96239 -12.7438
rtoes 8.59197
lfemur -1.74914 0.849732 -26.4583
ltibia 42.165
lfoot 7.62768 3.5921
ltoes -14.3754
674
root 1.10781 18.1126 37.4741 3.75432 0.0604993 9.90433
lowerback 3.32918 -5.26135 -17.3816
upperback -2.95569 -7.89525 2.56419
thorax -2.40398 -3.52988 12.8006
lowerneck -19.3669 1.62471 3.82972
upperneck 26.4612 2.90821 -6.34939
head 12.0817 0.831334 -2.58267
rclavicle -1.6524e-015 3.57812e-014
rhumerus -54.0368 -23.3651 -45.965
rradius 24.8361
rwrist -1.98504
rhand -12.0881 -1.16975
rfingers 7.12502
rthumb 13.9721 -30.6802
lclavicle -1.6524e-015 3.57812e-014
lhumerus -22.7893 -15.0834 90.0052
lradius 48.9448
lwrist 4.79067
lhand -11.5344 -10.3026
lfingers 7.12502
lthumb 14.5057 19.1703
rfemur -22.8708 -7.43475 13.8309
rtibia 35.9172
rfoot -7.14874 -12.555
rtoes 8.46293
lfemur -2.63066 1.18947 -26.6646
ltibia 43.4419
lfoot 7.70115 3.55261
ltoes -13.689
675
root 1.0958 18.1191 37.5248 3.82722 -0.175294 9.96721
lowerback 3.12879 -5.33577 -17.6103
upperback -2.64205 -7.93885 2.66156
thorax -1.88874 -3.62079 12.987
lowerneck -20.1391 1.90133 4.13781
upperneck 26.3398 3.28544 -6.70824
head 12.2282 0.972763 -2.71036
rclavicle -8.59744e-015 -1.74931e-014
rhumerus -52.4815 -23.3677 -47.5126
rradius 24.7104
rwrist -2.00243
rhand -12.1931 -1.20632
rfingers 7.12502
rthumb 13.8709 -30.7238
lclavicle -8.59744e-015 -1.74931e-014
lhumerus -22.8121 -14.1904 90.0415
lradius 48.4098
lwrist 4.56762
lhand -11.5148 -10.2758
lfingers 7.12502
lthumb 14.5245 19.1957
rfemur -22.796 -7.3456 13.7989
rtibia 35.9015
rfoot -7.31807 -12.4354
rtoes 8.37301
lfemur -3.48366 1.6204 -26.6478
ltibia 44.697
lfoot 7.51002 3.70778
ltoes -13.435
676
root 1.08194 18.1248 37.5746 3.88954 -0.435233 10.0376
lowerback 2.89717 -5.47976 -17.9879
upperback -2.23721 -8.06687 2.80121
thorax -1.2 -3.77806 13.2889
lowerneck -21.0891 2.30662 4.61752
upperneck 26.1926 3.80956 -7.1795
head 12.4209 1.17721 -2.88466
rclavicle -5.72997e-014 -1.59028e-014
rhumerus -50.5597 -23.2527 -49.3119
rradius 24.5779
rwrist -1.92824
rhand -12.272 -1.21696
rfingers 7.12502
rthumb 13.7949 -30.7396
lclavicle -5.72997e-014 -1.59028e-014
lhumerus -22.6526 -13.0201 89.9307
lradius 47.8197
lwrist 4.39556
lhand -11.5551 -10.1943
lfingers 7.12502
lthumb 14.4857 19.28
rfemur -22.7173 -7.17405 13.7587
rtibia 35.8805
rfoot -7.47249 -12.3693
rtoes 8.3237
lfemur -4.32151 2.10069 -26.6358
ltibia 45.8997
lfoot 7.04618 4.09411
ltoes -13.5399
677
root 1.07217 18.13 37.6224 3.95541 -0.687206 10.1157
lowerback 2.84516 -5.18922 -17.6977
upperback -2.18917 -7.65424 2.64514
thorax -1.32071 -3.56503 12.9641
lowerneck -21.4142 2.13522 4.41581
upperneck 26.208 3.6017 -7.09542
head 12.4714 1.07021 -2.85384
rclavicle 3.65267e-014 1.11319e-014
rhumerus -50.206 -23.3511 -50.2788
rradius 24.74
rwrist -2.13491
rhand -12.3057 -1.21895
rfingers 7.12502
rthumb 13.7624 -30.7438
lclavicle 3.65267e-014 1.11319e-014
lhumerus -23.1182 -13.1452 90.3827
lradius 47.1748
lwrist 4.25363
lhand -11.629 -10.0903
lfingers 7.12502
lthumb 14.4145 19.3892
rfemur -22.6482 -7.06202 13.7012
rtibia 35.8536
rfoot -7.62469 -12.2514
rtoes 8.30099
lfemur -5.14635 2.58385 -26.6517
ltibia 47.0317
lfoot 6.29757 4.68988
ltoes -13.9298
678
root 1.06245 18.1342 37.6688 4.03322 -0.941938 10.2381
lowerback 2.80545 -4.94559 -17.5388
upperback -2.14081 -7.31248 2.51405
thorax -1.39989 -3.3905 12.7373
lowerneck -21.7487 2.0319 4.3095
upperneck 26.2173 3.47907 -7.08058
head 12.5316 1.00146 -2.85197
rclavicle -5.85918e-014 -4.77083e-015
rhumerus -49.6578 -23.2816 -51.4072
rradius 24.9343
rwrist -2.3364
rhand -12.3138 -1.24309
rfingers 7.12502
rthumb 13.7546 -30.7684
lclavicle -5.85918e-014 -4.77083e-015
lhumerus -23.5642 -13.046 90.7501
lradius 46.5037
lwrist 4.03601
lhand -11.6795 -9.972
lfingers 7.12502
lthumb 14.3658 19.5109
rfemur -22.6098 -6.92655 13.5917
rtibia 35.8441
rfoot -7.77355 -12.1528
rtoes 8.30049
lfemur -5.9614 3.07146 -26.7236
ltibia 48.0665
lfoot 5.34118 5.39241
ltoes -14.4386
